Coordinates
version=1
nRows=6
nColumns=36
inDegrees=yes

Units are S.I. units (second, meters, Newtons, ...)
If the header above contains a line with 'inDegrees', this indicates whether rotational values are in degrees (yes) or radians (no).

endheader
time	pelvis_tilt	pelvis_list	pelvis_rotation	pelvis_tx	pelvis_ty	pelvis_tz	hip_flexion_r	hip_adduction_r	hip_rotation_r	knee_angle_r	knee_angle_r_beta	ankle_angle_r	subtalar_angle_r	mtp_angle_r	hip_flexion_l	hip_adduction_l	hip_rotation_l	knee_angle_l	knee_angle_l_beta	ankle_angle_l	subtalar_angle_l	mtp_angle_l	lumbar_extension	lumbar_bending	lumbar_rotation	arm_flex_r	arm_add_r	arm_rot_r	elbow_flex_r	pro_sup_r	arm_flex_l	arm_add_l	arm_rot_l	elbow_flex_l	pro_sup_l
      1.58000000	      1.56982360	      1.34278538	      5.92982690	     -0.32557916	      0.75837709	     -0.55798978	     56.76245013	     -3.88578091	     -6.23437215	     95.75216930	      1.67119062	     33.90932468	    -14.74253913	     -7.47337373	     58.56663270	     -3.95936960	      1.63670496	     97.12702415	      1.69518636	     31.18031772	      5.90312448	     -7.47337373	    -37.20805278	     -1.79389076	     -7.38151832	     -9.73183072	    -10.87200767	    -15.69151153	     83.03781164	     98.47416396	     -6.93359952	     -5.86575213	    -22.48720378	     92.59137426	     92.69192496
      1.59000000	      1.49642936	      1.26180490	      6.17910228	     -0.32453854	      0.74782645	     -0.55773102	     57.46194950	     -3.79520702	     -6.16864780	     97.43245322	      1.70051711	     36.10262314	    -13.79919031	     -7.47530428	     59.34639319	     -3.96178736	      1.71849779	     98.70640667	      1.72275179	     33.12298624	      6.39128005	     -7.47530428	    -38.06208793	     -1.25466264	     -8.83402236	     -2.47499472	    -11.79406989	    -11.04065964	     79.78704686	    101.44316943	     -2.09913252	     -7.91452769	    -21.49831647	     92.47386069	     93.67546567
      1.60000000	      1.21795659	      1.12017100	      6.60634294	     -0.32370276	      0.73809955	     -0.55744394	     58.38254379	     -3.84639352	     -6.37879175	     98.93612221	      1.72676108	     37.27237127	    -14.31703341	     -7.47559096	     60.42289332	     -3.83604302	      1.82373481	    100.17312896	      1.74835092	     34.48529717	      5.77724482	     -7.47559096	    -38.50050453	     -0.62477339	     -8.75842371	      3.34823846	    -11.91974630	     -8.80632357	     77.72485019	    101.59869518	      4.09120670	    -10.16001730	    -18.59952622	     91.34739693	     93.73565791
      1.61000000	      0.67336346	      1.00740316	      6.89521507	     -0.32300277	      0.72924889	     -0.55690285	     59.66508616	     -3.85015366	     -6.39010317	    100.32592584	      1.75101773	     38.25926369	    -13.82600876	     -7.48202016	     61.85952032	     -3.83354188	      1.74435604	    101.55698495	      1.77250377	     35.03217120	      5.47054752	     -7.48202016	    -38.45688576	     -0.16867793	     -8.97807076	      9.70786010	    -12.15012536	     -5.53740398	     74.39199967	    106.52982893	     10.06437804	    -12.48483960	    -15.81930384	     89.77685911	     96.22499334
      1.62000000	      0.19443161	      0.80962853	      7.15225017	     -0.32229083	      0.72152695	     -0.55631695	     60.88451647	     -3.81013676	     -6.51186276	    101.57486039	      1.77281575	     38.71923518	    -13.99018684	     -7.48225253	     63.31730310	     -3.87266324	      1.74367642	    102.91310701	      1.79617256	     35.19605823	      4.88079028	     -7.48225253	    -38.34714990	      0.31094256	     -8.64695298	     15.63518245	    -12.20455443	     -2.94115200	     71.63246008	    106.48725729	     16.45845107	    -14.56107480	    -12.20337441	     88.02535834	     96.14230791
      1.63000000	     -0.16995617	      0.51221835	      7.33854419	     -0.32165861	      0.71510151	     -0.55566042	     61.90223278	     -3.60186134	     -6.62792088	    102.63310087	      1.79128553	     39.01548386	    -14.09840804	     -7.48246400	     64.66328964	     -3.98152785	      1.84047893	    104.13469408	      1.81749328	     34.99133467	      4.09570620	     -7.48246400	    -38.26704272	      0.83224403	     -8.18858345	     21.54674993	    -12.22765349	     -0.17112417	     68.68937096	    106.46929982	     22.89833089	    -16.44430095	     -8.40431687	     86.11999770	     96.03739933
